<svg xmlns="http://www.w3.org/2000/svg" width="899" height="680" viewBox="0 0 899 680"><g transform="translate(-91 -1594)"><g transform="translate(0 68)"><g transform="translate(1 -9)"><text transform="translate(200 1578)" fill="#fcfafa" font-size="40" font-family="NotoSans, Noto Sans"><tspan x="0" y="0">f**k, i&apos;m lonely (with Anne Marie)</tspan></text><text transform="translate(200 1622)" fill="#ababab" font-size="30" font-family="NotoSans, Noto Sans"><tspan x="0" y="0">72,575,492</tspan></text></g><path d="M27.859,13.286A13.622,13.622,0,0,0,15.43,5,12.189,12.189,0,0,0,3,17.43c0,9.748,10.477,17.285,24.859,31.765C42.242,34.715,52.718,27.177,52.718,17.43A12.189,12.189,0,0,0,40.289,5,13.616,13.616,0,0,0,27.859,13.286Z" transform="translate(936.282 1546.5)" fill="#ababab" stroke="#fff" stroke-linecap="round" stroke-linejoin="round" stroke-width="2" fill-rule="evenodd"/><text transform="translate(91 1593)" fill="#fff" font-size="50" font-family="NotoSans, Noto Sans"><tspan x="0" y="0">1</tspan></text></g><g transform="translate(0 214)" opacity="0.95"><g transform="translate(1 -9)"><text transform="translate(200 1578)" fill="#fcfafa" font-size="40" font-family="NotoSans, Noto Sans"><tspan x="0" y="0">Superhero</tspan></text><text transform="translate(200 1622)" fill="#ababab" font-size="30" font-family="NotoSans, Noto Sans"><tspan x="0" y="0">89,201,847</tspan></text></g><path d="M27.859,13.286A13.622,13.622,0,0,0,15.43,5,12.189,12.189,0,0,0,3,17.43c0,9.748,10.477,17.285,24.859,31.765C42.242,34.715,52.718,27.177,52.718,17.43A12.189,12.189,0,0,0,40.289,5,13.616,13.616,0,0,0,27.859,13.286Z" transform="translate(936.282 1546.5)" fill="#f6ac02" stroke="#fff" stroke-linecap="round" stroke-linejoin="round" stroke-width="2" fill-rule="evenodd"/><text transform="translate(91 1593)" fill="#fff" font-size="50" font-family="NotoSans, Noto Sans"><tspan x="0" y="0">2</tspan></text></g><g transform="translate(0 360)" opacity="0.9"><g transform="translate(1 -9)"><text transform="translate(200 1578)" fill="#fcfafa" font-size="40" font-family="NotoSans, Noto Sans"><tspan x="0" y="0">i&apos;m so tired...</tspan></text><text transform="translate(200 1622)" fill="#ababab" font-size="30" font-family="NotoSans, Noto Sans"><tspan x="0" y="0">347,686,630</tspan></text></g><path d="M27.859,13.286A13.622,13.622,0,0,0,15.43,5,12.189,12.189,0,0,0,3,17.43c0,9.748,10.477,17.285,24.859,31.765C42.242,34.715,52.718,27.177,52.718,17.43A12.189,12.189,0,0,0,40.289,5,13.616,13.616,0,0,0,27.859,13.286Z" transform="translate(936.282 1546.5)" fill="#ababab" stroke="#fff" stroke-linecap="round" stroke-linejoin="round" stroke-width="2" fill-rule="evenodd"/><text transform="translate(91 1593)" fill="#fff" font-size="50" font-family="NotoSans, Noto Sans"><tspan x="0" y="0">3</tspan></text></g><g transform="translate(0 506)" opacity="0.5"><g transform="translate(1 -9)"><text transform="translate(200 1578)" fill="#fcfafa" font-size="40" font-family="NotoSans, Noto Sans"><tspan x="0" y="0">I like me better</tspan></text><text transform="translate(200 1622)" fill="#ababab" font-size="30" font-family="NotoSans, Noto Sans"><tspan x="0" y="0">800,286,983</tspan></text></g><path d="M27.859,13.286A13.622,13.622,0,0,0,15.43,5,12.189,12.189,0,0,0,3,17.43c0,9.748,10.477,17.285,24.859,31.765C42.242,34.715,52.718,27.177,52.718,17.43A12.189,12.189,0,0,0,40.289,5,13.616,13.616,0,0,0,27.859,13.286Z" transform="translate(936.282 1546.5)" fill="#ababab" stroke="#fff" stroke-linecap="round" stroke-linejoin="round" stroke-width="2" fill-rule="evenodd"/><text transform="translate(91 1593)" fill="#fff" font-size="50" font-family="NotoSans, Noto Sans"><tspan x="0" y="0">4</tspan></text></g><g transform="translate(0 652)" opacity="0.1"><g transform="translate(1 -9)"><text transform="translate(200 1578)" fill="#fcfafa" font-size="40" font-family="NotoSans, Noto Sans"><tspan x="0" y="0">Paris in the Rain</tspan></text><text transform="translate(200 1622)" fill="#ababab" font-size="30" font-family="NotoSans, Noto Sans"><tspan x="0" y="0">114,142,360</tspan></text></g><path d="M27.859,13.286A13.622,13.622,0,0,0,15.43,5,12.189,12.189,0,0,0,3,17.43c0,9.748,10.477,17.285,24.859,31.765C42.242,34.715,52.718,27.177,52.718,17.43A12.189,12.189,0,0,0,40.289,5,13.616,13.616,0,0,0,27.859,13.286Z" transform="translate(936.282 1546.5)" fill="#eaa707" stroke="#fff" stroke-linecap="round" stroke-linejoin="round" stroke-width="2" fill-rule="evenodd"/><text transform="translate(91 1593)" fill="#fff" font-size="50" font-family="NotoSans, Noto Sans"><tspan x="0" y="0">5</tspan></text></g></g></svg>